<?xml version="1.0" encoding="UTF-8" standalone="no"?>
<!DOCTYPE svg PUBLIC "-//W3C//DTD SVG 1.1//EN" "http://www.w3.org/Graphics/SVG/1.1/DTD/svg11.dtd">
<svg xmlns="http://www.w3.org/2000/svg" version="1.1" viewBox="0.00 0.00 500.00 500.00">
<g stroke-width="2.00" fill="none" stroke-linecap="butt">
<path stroke="#f56d48" vector-effect="non-scaling-stroke" d="
  M 129.23 231.96
  L 128.81 231.93
  Q 128.40 231.90 128.12 231.61
  L 110.91 214.08
  A 0.79 0.78 46.9 0 0 109.84 214.04
  Q 100.05 222.46 91.44 232.56"
/>
<path stroke="#de49af" vector-effect="non-scaling-stroke" d="
  M 129.15 232.55
  Q 129.00 232.60 128.75 232.71
  Q 128.54 232.81 128.39 232.99
  C 124.61 237.35 119.56 241.47 116.19 244.99
  Q 112.16 249.20 110.37 251.24
  Q 109.89 251.79 110.24 252.20"
/>
<path stroke="#8b369f" vector-effect="non-scaling-stroke" d="
  M 110.24 252.20
  Q 109.32 252.00 109.65 252.36"
/>
<path stroke="#787b6c" vector-effect="non-scaling-stroke" d="
  M 109.65 252.36
  Q 109.62 252.20 109.59 252.08
  Q 109.54 251.89 109.41 251.74
  Q 103.08 244.39 95.97 237.82
  C 94.23 236.22 92.95 234.17 91.30 232.35"
/>
<path stroke="#1569a8" vector-effect="non-scaling-stroke" d="
  M 109.65 252.36
  Q 102.05 260.49 93.40 267.65
  Q 92.42 268.46 90.41 269.60
  Q 88.65 270.61 87.52 271.77"
/>
<path stroke="#7b37eb" vector-effect="non-scaling-stroke" d="
  M 132.18 270.56
  C 129.30 269.12 126.85 268.05 124.41 265.88
  Q 117.03 259.34 110.24 252.20"
/>
<path stroke="#45bfb2" vector-effect="non-scaling-stroke" d="
  M 90.70 232.58
  Q 90.92 232.83 90.93 233.13
  Q 90.95 233.36 90.72 233.62
  Q 88.94 235.68 83.57 240.57
  Q 80.49 243.38 69.98 254.25"
/>
</g>
<path fill="#fb922d" d="
  M 129.23 231.96
  L 128.81 231.93
  Q 128.40 231.90 128.12 231.61
  L 110.91 214.08
  A 0.79 0.78 46.9 0 0 109.84 214.04
  Q 100.05 222.46 91.44 232.56
  Q 86.05 220.14 93.77 210.03
  Q 98.01 204.47 105.24 203.29
  C 121.26 200.66 135.99 215.92 129.23 231.96
  Z"
/>
<path fill="#ee4863" d="
  M 129.23 231.96
  Q 129.14 232.07 129.15 232.55
  Q 129.00 232.60 128.75 232.71
  Q 128.54 232.81 128.39 232.99
  C 124.61 237.35 119.56 241.47 116.19 244.99
  Q 112.16 249.20 110.37 251.24
  Q 109.89 251.79 110.24 252.20
  Q 109.32 252.00 109.65 252.36
  Q 109.62 252.20 109.59 252.08
  Q 109.54 251.89 109.41 251.74
  Q 103.08 244.39 95.97 237.82
  C 94.23 236.22 92.95 234.17 91.30 232.35
  Q 91.37 232.45 91.44 232.56
  Q 100.05 222.46 109.84 214.04
  A 0.79 0.78 46.9 0 1 110.91 214.08
  L 128.12 231.61
  Q 128.40 231.90 128.81 231.93
  L 129.23 231.96
  Z"
/>
<path fill="#88cfef" d="
  M 90.70 232.58
  Q 90.92 232.83 90.93 233.13
  Q 90.95 233.36 90.72 233.62
  Q 88.94 235.68 83.57 240.57
  Q 80.49 243.38 69.98 254.25
  Q 59.15 243.82 56.17 241.08
  C 52.98 238.15 54.57 235.74 57.26 233.28
  Q 64.07 227.05 70.40 220.33
  C 72.12 218.51 74.88 217.42 76.74 219.26
  Q 83.15 225.61 89.65 231.85
  Q 90.14 232.32 90.70 232.58
  Z"
/>
<ellipse fill="#fdfdfb" cx="0.00" cy="0.00" transform="translate(361.26,224.14) rotate(81.5)" rx="4.15" ry="3.67"/>
<path fill="#fdfdfb" d="
  M 407.46 252.28
  L 413.76 252.24
  Q 414.28 252.23 414.28 252.76
  L 414.26 258.48
  Q 414.26 258.98 413.76 258.99
  L 400.98 259.20
  Q 400.51 259.21 400.51 258.73
  L 400.55 226.50
  Q 400.56 223.31 403.39 221.82
  L 404.26 221.37
  Q 406.90 219.99 406.90 222.97
  L 406.89 251.71
  Q 406.89 252.29 407.46 252.28
  Z"
/>
<path fill="#fdfdfb" d="
  M 393.42 254.77
  C 393.83 255.18 394.49 255.35 394.87 255.74
  Q 398.57 259.59 396.64 264.64
  C 392.63 275.13 369.42 274.31 369.19 262.12
  A 2.59 2.57 78.3 0 1 370.78 259.69
  L 374.11 258.32
  Q 375.71 257.66 375.61 259.39
  C 375.18 266.77 384.21 266.75 388.46 264.20
  C 391.42 262.43 390.85 258.17 386.49 258.60
  Q 381.93 259.05 380.25 258.81
  C 372.62 257.70 367.13 251.91 367.38 244.24
  Q 367.50 240.62 369.51 237.64
  C 374.11 230.80 380.56 230.71 388.47 231.57
  Q 388.99 231.62 389.37 231.26
  C 391.07 229.62 395.32 225.92 397.31 229.43
  Q 397.97 230.61 397.91 232.05
  A 0.83 0.78 -17.7 0 1 397.58 232.65
  L 394.54 234.89
  Q 394.06 235.25 394.35 235.78
  C 395.28 237.47 396.37 239.06 396.87 240.82
  Q 399.03 248.44 393.42 254.05
  Q 393.05 254.41 393.42 254.77
  Z
  M 390.4239 245.4351
  A 8.13 7.31 5.4 0 0 383.0179 237.3924
  A 8.13 7.31 5.4 0 0 374.2361 243.9049
  A 8.13 7.31 5.4 0 0 381.6421 251.9476
  A 8.13 7.31 5.4 0 0 390.4239 245.4351
  Z"
/>
<path fill="#fdfdfb" d="
  M 169.63 233.13
  Q 170.60 232.81 171.51 232.35
  Q 179.15 228.41 184.95 234.26
  Q 185.31 234.62 185.69 234.28
  C 193.47 227.09 206.04 230.91 205.97 242.25
  Q 205.91 250.59 205.84 258.50
  A 0.58 0.58 0.0 0 1 205.26 259.07
  L 199.28 259.01
  Q 198.75 259.01 198.75 258.47
  Q 198.75 250.66 198.70 242.26
  C 198.66 234.77 188.45 236.44 188.34 241.50
  Q 188.13 250.15 188.13 258.38
  Q 188.13 259.00 187.51 259.00
  L 181.51 259.00
  Q 181.02 259.00 181.01 258.51
  L 180.90 240.86
  Q 180.90 240.32 180.58 239.89
  Q 177.38 235.61 172.26 238.16
  C 170.55 239.01 170.01 239.87 170.02 241.88
  Q 170.03 250.37 170.01 258.64
  Q 170.01 259.16 169.49 259.15
  L 163.77 259.05
  Q 163.24 259.04 163.24 258.52
  L 163.25 231.76
  Q 163.25 231.27 163.74 231.26
  L 168.80 231.25
  Q 169.35 231.25 169.27 231.80
  L 169.14 232.72
  Q 169.06 233.31 169.63 233.13
  Z"
/>
<path fill="#fdfdfb" d="
  M 239.0855 245.8665
  A 15.28 14.52 2.5 0 1 223.1866 259.7062
  A 15.28 14.52 2.5 0 1 208.5545 244.5335
  A 15.28 14.52 2.5 0 1 224.4534 230.6938
  A 15.28 14.52 2.5 0 1 239.0855 245.8665
  Z
  M 231.82 245.17
  A 7.98 7.98 0.0 0 0 223.84 237.19
  A 7.98 7.98 0.0 0 0 215.86 245.17
  A 7.98 7.98 0.0 0 0 223.84 253.15
  A 7.98 7.98 0.0 0 0 231.82 245.17
  Z"
/>
<path fill="#fdfdfb" d="
  M 249.10 233.57
  C 257.02 227.07 267.88 231.32 268.09 241.75
  Q 268.26 250.24 268.32 258.42
  Q 268.32 259.00 267.74 258.99
  L 261.72 258.96
  A 0.57 0.57 0.0 0 1 261.15 258.38
  Q 261.45 246.87 261.10 241.01
  C 260.76 235.18 249.33 235.60 249.21 243.09
  Q 249.08 250.83 249.07 258.27
  A 0.75 0.75 0.0 0 1 248.31 259.02
  L 242.75 258.96
  Q 242.04 258.96 242.04 258.25
  L 241.92 231.92
  Q 241.92 231.25 242.58 231.25
  L 247.75 231.28
  A 0.69 0.69 0.0 0 1 248.44 232.00
  L 248.40 233.23
  Q 248.37 234.17 249.10 233.57
  Z"
/>
<path fill="#fdfdfb" d="
  M 279.95 247.67
  Q 278.21 247.66 279.22 249.07
  L 280.77 251.27
  Q 281.80 252.71 283.52 253.12
  Q 289.84 254.61 294.78 250.69
  Q 295.65 250.00 296.47 250.74
  L 299.40 253.41
  Q 300.19 254.13 299.41 254.86
  C 293.41 260.50 285.10 261.32 278.50 257.33
  C 269.36 251.80 268.63 239.44 277.48 233.29
  C 285.13 227.96 295.02 230.17 299.93 238.11
  C 301.48 240.62 301.94 242.96 301.55 245.80
  A 2.34 2.33 -85.8 0 1 299.23 247.81
  L 279.95 247.67
  Z
  M 293.71 241.76
  A 0.98 0.98 0.0 0 0 294.30 239.99
  L 290.97 237.48
  A 0.98 0.98 0.0 0 0 290.52 237.29
  L 284.79 236.49
  A 0.98 0.98 0.0 0 0 284.09 236.66
  L 279.28 240.05
  A 0.98 0.98 0.0 0 0 279.85 241.83
  L 293.71 241.76
  Z"
/>
<path fill="#fdfdfb" d="
  M 358.44 238.51
  L 358.38 231.76
  Q 358.37 231.39 358.75 231.36
  L 364.21 230.84
  Q 364.43 230.82 364.43 231.05
  Q 364.52 243.42 364.50 255.99
  C 364.49 260.00 359.18 260.86 358.72 257.96
  Q 358.54 256.87 358.32 257.75
  L 358.13 258.53
  A 0.69 0.69 0.0 0 1 357.62 259.04
  C 353.94 259.89 352.17 258.17 352.10 254.51
  Q 351.96 247.54 351.84 240.76
  A 3.80 3.80 0.0 0 0 347.95 237.03
  L 346.75 237.06
  Q 341.88 237.17 341.85 242.05
  L 341.75 258.57
  Q 341.74 259.14 341.18 259.14
  L 335.47 259.07
  A 0.60 0.60 0.0 0 1 334.88 258.47
  L 334.86 238.65
  A 1.34 1.34 0.0 0 0 333.39 237.32
  L 327.03 237.93
  Q 326.53 237.98 326.33 238.45
  L 312.90 270.67
  A 0.51 0.50 -78.8 0 1 312.43 270.99
  L 304.95 271.03
  Q 304.57 271.03 304.74 270.69
  L 311.26 257.92
  A 1.45 1.44 -42.8 0 0 311.31 256.72
  L 301.24 231.68
  A 0.31 0.30 78.9 0 1 301.52 231.26
  L 308.07 231.19
  Q 308.30 231.19 308.39 231.40
  L 315.07 247.73
  Q 315.36 248.43 315.64 247.73
  L 322.07 231.94
  Q 322.28 231.41 322.85 231.39
  L 336.28 230.95
  Q 336.79 230.93 337.12 231.32
  L 339.35 233.90
  Q 339.75 234.36 340.14 233.90
  C 345.88 227.27 355.86 230.49 358.17 238.55
  A 0.14 0.14 0.0 0 0 358.44 238.51
  Z"
/>
<path fill="#fdfdfb" d="
  M 422.00 247.74
  A 0.41 0.40 -15.9 0 0 421.65 248.36
  C 425.26 254.07 431.85 255.24 437.36 251.07
  Q 438.28 250.37 439.21 251.07
  L 442.04 253.20
  Q 442.91 253.86 442.16 254.65
  Q 437.44 259.64 431.26 259.78
  Q 417.23 260.10 414.54 245.90
  Q 414.00 243.05 415.96 239.38
  Q 420.39 231.08 429.07 230.63
  C 437.68 230.17 446.65 237.58 444.18 246.74
  A 1.47 1.46 7.6 0 1 442.75 247.83
  L 422.00 247.74
  Z
  M 428.55 236.61
  A 1.04 1.04 0.0 0 0 427.90 236.75
  L 422.69 239.85
  A 1.04 1.04 0.0 0 0 423.23 241.78
  L 436.38 241.75
  A 1.04 1.04 0.0 0 0 437.02 239.89
  L 433.87 237.41
  A 1.04 1.04 0.0 0 0 433.35 237.19
  L 428.55 236.61
  Z"
/>
<path fill="#02ae74" d="
  M 90.70 232.58
  Q 91.35 232.74 91.30 232.35
  C 92.95 234.17 94.23 236.22 95.97 237.82
  Q 103.08 244.39 109.41 251.74
  Q 109.54 251.89 109.59 252.08
  Q 109.62 252.20 109.65 252.36
  Q 102.05 260.49 93.40 267.65
  Q 92.42 268.46 90.41 269.60
  Q 88.65 270.61 87.52 271.77
  Q 80.70 265.46 73.59 258.42
  Q 71.59 256.45 69.98 254.25
  Q 80.49 243.38 83.57 240.57
  Q 88.94 235.68 90.72 233.62
  Q 90.95 233.36 90.93 233.13
  Q 90.92 232.83 90.70 232.58
  Z"
/>
<path fill="#cd49fb" d="
  M 129.15 232.55
  Q 137.42 240.54 145.92 248.33
  Q 150.40 252.43 145.93 256.94
  C 143.38 259.51 139.36 262.90 136.18 266.47
  Q 134.17 268.73 132.18 270.56
  C 129.30 269.12 126.85 268.05 124.41 265.88
  Q 117.03 259.34 110.24 252.20
  Q 109.89 251.79 110.37 251.24
  Q 112.16 249.20 116.19 244.99
  C 119.56 241.47 124.61 237.35 128.39 232.99
  Q 128.54 232.81 128.75 232.71
  Q 129.00 232.60 129.15 232.55
  Z"
/>
<path fill="#2824db" d="
  M 109.65 252.36
  Q 109.32 252.00 110.24 252.20
  Q 117.03 259.34 124.41 265.88
  C 126.85 268.05 129.30 269.12 132.18 270.56
  C 126.17 277.05 119.54 282.35 113.65 288.58
  C 111.23 291.14 108.67 292.66 105.70 290.06
  Q 97.39 282.80 87.52 271.77
  Q 88.65 270.61 90.41 269.60
  Q 92.42 268.46 93.40 267.65
  Q 102.05 260.49 109.65 252.36
  Z"
/>
</svg>
